<svg width="25" height="22" viewBox="0 0 25 22" fill="none" xmlns="http://www.w3.org/2000/svg">
<path d="M18.25 1H6.75C3.57436 1 1 3.23858 1 6V16C1 18.7614 3.57436 21 6.75 21H18.25C21.4256 21 24 18.7614 24 16V6C24 3.23858 21.4256 1 18.25 1Z" stroke="white" stroke-width="1.5" stroke-linecap="round" stroke-linejoin="round"/>
<path d="M16.9459 10.8399C17.1002 11.7762 16.9225 12.7324 16.4381 13.5726C15.9537 14.4127 15.1873 15.094 14.2479 15.5196C13.3085 15.9451 12.244 16.0932 11.2057 15.9428C10.1673 15.7925 9.20812 15.3513 8.46447 14.682C7.72082 14.0127 7.23059 13.1494 7.06351 12.2149C6.89643 11.2804 7.061 10.3223 7.53383 9.47685C8.00666 8.63139 8.76365 7.94164 9.69715 7.5057C10.6306 7.06976 11.6931 6.90984 12.7334 7.04868C13.7946 7.1903 14.777 7.63532 15.5355 8.31802C16.2941 9.00072 16.7886 9.88489 16.9459 10.8399Z" stroke="white" stroke-width="1.5" stroke-linecap="round" stroke-linejoin="round"/>
</svg>
