<svg width="23" height="20" viewBox="0 0 23 20" fill="none" xmlns="http://www.w3.org/2000/svg">
<path d="M3.5 5C4.88071 5 6 4.10457 6 3C6 1.89543 4.88071 1 3.5 1C2.11929 1 1 1.89543 1 3C1 4.10457 2.11929 5 3.5 5Z" stroke="white" stroke-width="1.5" stroke-linecap="round" stroke-linejoin="round"/>
<path d="M6 8H1V19H6V8Z" stroke="white" stroke-width="1.5" stroke-linecap="round" stroke-linejoin="round"/>
<path d="M15.5 7C17.2239 7 18.8772 7.58351 20.0962 8.62218C21.3152 9.66084 22 11.0696 22 12.5385V19H17.6667V12.5385C17.6667 12.0488 17.4384 11.5793 17.0321 11.233C16.6257 10.8868 16.0746 10.6923 15.5 10.6923C14.9254 10.6923 14.3743 10.8868 13.9679 11.233C13.5616 11.5793 13.3333 12.0488 13.3333 12.5385V19H9V12.5385C9 11.0696 9.68482 9.66084 10.9038 8.62218C12.1228 7.58351 13.7761 7 15.5 7V7Z" stroke="white" stroke-width="1.5" stroke-linecap="round" stroke-linejoin="round"/>
</svg>
