<svg width="30" height="26" viewBox="0 0 30 26" fill="none" xmlns="http://www.w3.org/2000/svg">
<path d="M29 1.01345C27.7812 1.91691 26.4318 2.60792 25.0036 3.05985C24.2371 2.13364 23.2184 1.47716 22.0853 1.1792C20.9522 0.88125 19.7594 0.956198 18.6681 1.39391C17.5768 1.83162 16.6398 2.61098 15.9838 3.62658C15.3278 4.64218 14.9843 5.84501 15 7.07241V8.40992C12.7634 8.47087 10.5471 7.94957 8.54856 6.89244C6.55004 5.83531 4.83131 4.27517 3.54545 2.35097C3.54545 2.35097 -1.54545 14.3886 9.90909 19.7387C7.28794 21.6085 4.16547 22.5461 1 22.4137C12.4545 29.1013 26.4545 22.4137 26.4545 7.03228C26.4534 6.65972 26.4193 6.28808 26.3527 5.92214C27.6517 4.57592 28.5683 2.87623 29 1.01345Z" fill="white" stroke="white" stroke-width="0.4" stroke-linecap="round" stroke-linejoin="round"/>
</svg>
